<svg xmlns="http://www.w3.org/2000/svg" width="598.014" height="130"><path d="M305.565 29.552c-3.55-7.574-11.253-12.464-19.614-12.464-3.177 0-6.264.69-9.175 2.05-5.236 2.456-9.2 6.8-11.168 12.244-1.413 3.9-1.648 8.022-.782 11.975l43.566 5.28c.248-.806.457-1.64.58-2.538.64-4.71-.54-10.434-3.405-16.548zM59.2 45.8l3.31-24.506c.357-2.637-1.525-4.792-4.188-4.792H4.838C2.175 16.502 0 18.677 0 21.34v59.735c0 2.663 2.175 4.838 4.838 4.838h16.15C23.255 65.466 39.046 49.036 59.2 45.8z"/><path d="M357.616 52.344l-.066.032c1.863 3.465 1.068 6.337 1.003 6.552-1.19 3.952-5.346 7.052-9.475 7.052h-23.326c-4.532 0-8.225-3.692-8.225-8.225v-1.178l-62.94-7.626c-2.642-.318-4.804-2.76-4.804-5.423V29.304c0-2.663 1.536-4.838 3.412-4.838 1.875 0 3.412-2.175 3.412-4.84V4.84c0-2.663-2.175-4.838-4.838-4.838h-10.81c-2.665 0-6.826.886-9.26 1.973L100.52 60.45c5.763 6.422 9.748 14.484 11.15 23.386l10.118-4.793c5.256-2.494 13.923-4.623 19.732-4.85l124.048-4.924c7.19-.262 13.44 5.208 14.19 12.267l4.22 39.932c.175 1.686.02 3.327-.43 4.857h109.01c2.658 0 3.778-2.963 1.597-4.487l-16.39-11.513c-2.176-1.524-1.792-2.995.858-3.256l33.622-3.346c-1.172-4.044-1.81-8.31-1.81-12.725 0-17.883 10.315-33.388 25.3-40.922h-69.016c-2.657 0-6.76 1.016-9.104 2.266z"/><path d="M272.086 127.95c1.576 0 2.976-.594 3.934-1.668.97-1.075 1.413-2.54 1.243-4.11l-4.226-39.93c-.365-3.427-3.47-6.22-6.93-6.22l-.253.006-124.048 4.923c-4.864.197-12.698 2.118-17.1 4.208l-12.458 5.9c-.02 14.027-6.382 26.595-16.365 34.983l176.125 1.91M593.306 81.414l-107-24.896c9.62 8.4 15.708 20.734 15.708 34.475 0 1.393-.072 2.767-.19 4.122l56.643-3.4c-.17.515-.28 1.056-.28 1.61v6.994h25.605V90.185l9.39-.56c2.657-.162 4.832-1.83 4.832-3.705 0-1.876-2.11-3.907-4.708-4.506zM324.306 57.755c0 .788.67 1.453 1.453 1.453h23.325c1.133 0 2.56-1.03 2.95-2.11.15-1.4-1.602-4.61-9.423-7.222-8.297-2.768-12.874-3.178-14.854-3.178-.93 0-1.348.09-1.355.09-.976.314-2.09 1.824-2.09 3.01v7.957zM66.475 130c21.51 0 39.007-17.498 39.007-39 0-21.503-17.498-39.008-39.007-39.008-21.503 0-39 17.498-39 39.007 0 21.51 17.497 39 39 39zm0-60.106C78.132 69.894 87.58 79.35 87.58 91c0 11.656-9.448 21.105-21.105 21.105S45.37 102.655 45.37 91c0-11.657 9.448-21.106 21.105-21.106zM495.248 90.993c0-21.51-17.498-39.007-39-39.007-21.504 0-39.002 17.498-39.002 39.007 0 21.51 17.498 39 39 39 21.504 0 39.002-17.49 39.002-39zm-39 21.112c-11.658 0-21.106-9.45-21.106-21.106 0-11.65 9.448-21.106 21.105-21.106S477.353 79.35 477.353 91s-9.45 21.105-21.106 21.105zM557.913 107.09c-2.97 0-7.534-.612-10.406-1.393l-9.436-2.58c-2.298-.624-6.238-1.15-8.615-1.15H512.96c-.787 0-1.452.663-1.452 1.45v23.894c0 .788.665 1.453 1.452 1.453h73.398c.78 0 1.452-.665 1.452-1.452v-18.774c0-.788-.67-1.452-1.452-1.452h-28.445z"/></svg>