<svg xmlns="http://www.w3.org/2000/svg" width="598.014" height="130"><path d="M305.563 29.55c-3.55-7.574-11.253-12.465-19.614-12.465-3.18 0-6.266.69-9.176 2.05-5.236 2.456-9.202 6.8-11.17 12.244-1.412 3.9-1.646 8.022-.78 11.975l43.565 5.28c.247-.807.455-1.64.58-2.54.637-4.707-.542-10.43-3.407-16.546zM59.2 45.797l3.31-24.505c.357-2.637-1.525-4.793-4.188-4.793H4.84C2.175 16.5 0 18.673 0 21.336v59.735c0 2.663 2.176 4.838 4.84 4.838h16.15c2.265-20.447 18.056-36.877 38.21-40.113zM357.613 52.34l-.065.034c1.863 3.464 1.068 6.336 1.003 6.55-1.19 3.954-5.345 7.053-9.474 7.053H325.75c-4.532 0-8.224-3.692-8.224-8.224v-1.18l-62.94-7.625c-2.643-.32-4.805-2.76-4.805-5.424V29.302c0-2.664 1.538-4.84 3.414-4.84 1.875 0 3.412-2.174 3.412-4.837V4.835c0-2.662-2.175-4.837-4.84-4.837H240.96c-2.664 0-6.825.885-9.26 1.973L100.52 60.45c5.763 6.42 9.748 14.48 11.148 23.383l10.12-4.793c5.255-2.494 13.923-4.623 19.73-4.85l124.048-4.924c7.19-.26 13.44 5.21 14.19 12.268l4.22 39.932c.176 1.687.02 3.328-.43 4.858h109.01c2.658 0 3.778-2.963 1.596-4.487l-16.39-11.513c-2.175-1.524-1.79-2.996.86-3.256l33.62-3.347c-1.17-4.043-1.81-8.31-1.81-12.724 0-17.882 10.315-33.387 25.3-40.92h-69.015c-2.657 0-6.76 1.015-9.104 2.265zM272.085 127.945c1.576 0 2.976-.592 3.933-1.667.97-1.074 1.413-2.54 1.244-4.11l-4.226-39.93c-.365-3.426-3.47-6.22-6.93-6.22l-.253.007-124.047 4.923c-4.865.196-12.7 2.117-17.1 4.207l-12.458 5.9c-.02 14.027-6.382 26.595-16.365 34.982l176.124 1.908"/><path d="M593.302 81.41L486.304 56.516c9.618 8.4 15.707 20.735 15.707 34.475 0 1.393-.07 2.767-.188 4.122l56.64-3.4c-.168.515-.28 1.056-.28 1.61V100.314h25.606V90.182l9.39-.56c2.657-.162 4.832-1.83 4.832-3.705s-2.11-3.907-4.708-4.506zM324.305 57.753c0 .788.67 1.452 1.452 1.452h23.326c1.133 0 2.56-1.03 2.95-2.11.15-1.4-1.602-4.61-9.423-7.222-8.296-2.768-12.874-3.178-14.854-3.178-.93 0-1.348.09-1.355.09-.975.314-2.09 1.825-2.09 3.01v7.958zM66.475 129.997c21.51 0 39.007-17.498 39.007-39 0-21.503-17.498-39.008-39.007-39.008-21.503 0-39 17.497-39 39.006 0 21.51 17.497 39 39 39zm0-60.106c11.656 0 21.105 9.456 21.105 21.106 0 11.657-9.45 21.106-21.105 21.106-11.656 0-21.105-9.45-21.105-21.106 0-11.656 9.45-21.105 21.105-21.105zM495.245 90.99c0-21.51-17.498-39.007-39-39.007-21.503 0-39 17.498-39 39.007 0 21.51 17.497 39 39 39 21.502 0 39-17.49 39-39zm-39 21.112c-11.657 0-21.106-9.45-21.106-21.106 0-11.65 9.448-21.105 21.104-21.105 11.657 0 21.106 9.456 21.106 21.106 0 11.65-9.45 21.106-21.106 21.106zM557.91 107.088c-2.97 0-7.535-.613-10.407-1.394l-9.435-2.58c-2.3-.624-6.24-1.15-8.616-1.15h-16.495c-.788 0-1.452.663-1.452 1.45v23.893c0 .788.664 1.452 1.452 1.452h73.397c.78 0 1.452-.665 1.452-1.453v-18.774c0-.788-.67-1.452-1.452-1.452H557.91z"/></svg>