<?xml version="1.0" encoding="UTF-8" standalone="no"?>
<!-- Created with Inkscape (http://www.inkscape.org/) -->

<svg
   xmlns:dc="http://purl.org/dc/elements/1.1/"
   xmlns:cc="http://creativecommons.org/ns#"
   xmlns:rdf="http://www.w3.org/1999/02/22-rdf-syntax-ns#"
   xmlns:svg="http://www.w3.org/2000/svg"
   xmlns="http://www.w3.org/2000/svg"
   version="1.1"
   width="598.01434"
   height="130"
   id="svg2">
  <defs
     id="defs4" />
  <metadata
     id="metadata7">
    <rdf:RDF>
      <cc:Work
         rdf:about="">
        <dc:format>image/svg+xml</dc:format>
        <dc:type
           rdf:resource="http://purl.org/dc/dcmitype/StillImage" />
        <dc:title></dc:title>
      </cc:Work>
    </rdf:RDF>
  </metadata>
  <g
     transform="translate(-67.424187,-325.21932)"
     id="layer1">
    <g
       transform="matrix(1.625,0,0,1.625,1452.8599,346.91649)"
       id="layer1-0">
      <g
         transform="matrix(4.0074137,0,0,4.0074137,-870.27657,-174.03737)"
         id="g3046">
        <path
           d="m 51.34,44.635 c -0.545,-1.163 -1.728,-1.914 -3.012,-1.914 -0.488,0 -0.962,0.106 -1.409,0.315 -0.804,0.377 -1.413,1.044 -1.715,1.88 -0.217,0.599 -0.253,1.232 -0.12,1.839 l 6.69,0.811 c 0.038,-0.124 0.07,-0.252 0.089,-0.39 0.098,-0.723 -0.083,-1.602 -0.523,-2.541 z"
           id="path3022" />
        <path
           d="m 13.508,47.13 0.508,-3.763 c 0.055,-0.405 -0.234,-0.736 -0.643,-0.736 H 5.16 c -0.409,0 -0.743,0.334 -0.743,0.743 v 9.173 c 0,0.409 0.334,0.743 0.743,0.743 h 2.48 c 0.348,-3.14 2.773,-5.663 5.868,-6.16 z"
           id="path3024" />
        <path
           d="m 59.333,48.135 -0.01,0.005 c 0.286,0.532 0.164,0.973 0.154,1.006 -0.183,0.607 -0.821,1.083 -1.455,1.083 H 54.44 c -0.696,0 -1.263,-0.567 -1.263,-1.263 V 48.785 L 43.512,47.614 C 43.106,47.565 42.774,47.19 42.774,46.781 v -2.184 c 0,-0.409 0.236,-0.743 0.524,-0.743 0.288,0 0.524,-0.334 0.524,-0.743 V 40.84 c 0,-0.409 -0.334,-0.743 -0.743,-0.743 h -1.66 c -0.409,0 -1.048,0.136 -1.422,0.303 l -20.144,8.98 c 0.885,0.986 1.497,2.224 1.712,3.591 l 1.554,-0.736 c 0.807,-0.383 2.138,-0.71 3.03,-0.745 l 19.049,-0.756 c 1.104,-0.04 2.064,0.8 2.179,1.884 l 0.648,6.132 c 0.027,0.259 0.003,0.511 -0.066,0.746 h 16.74 c 0.408,0 0.58,-0.455 0.245,-0.689 l -2.517,-1.768 c -0.334,-0.234 -0.275,-0.46 0.132,-0.5 l 5.163,-0.514 c -0.18,-0.621 -0.278,-1.276 -0.278,-1.954 0,-2.746 1.584,-5.127 3.885,-6.284 H 60.731 c -0.408,0 -1.038,0.156 -1.398,0.348 z"
           id="path3026" />
        <path
           d="m 46.199,59.745 c 0.242,0 0.457,-0.091 0.604,-0.256 0.149,-0.165 0.217,-0.39 0.191,-0.631 L 46.345,52.726 C 46.289,52.2 45.812,51.771 45.281,51.771 l -0.039,10e-4 -19.049,0.756 c -0.747,0.03 -1.95,0.325 -2.626,0.646 l -1.913,0.906 c -0.003,2.154 -0.98,4.084 -2.513,5.372 l 27.046,0.293"
           id="path3028" />
        <path
           d="M 95.526,52.599 79.095,48.776 c 1.477,1.29 2.412,3.184 2.412,5.294 0,0.214 -0.011,0.425 -0.029,0.633 l 8.698,-0.522 c -0.026,0.079 -0.043,0.162 -0.043,0.247 v 0.798 0.276 h 3.932 v -0.513 -1.043 l 1.442,-0.086 c 0.408,-0.025 0.742,-0.281 0.742,-0.569 0,-0.288 -0.324,-0.6 -0.723,-0.692 z"
           id="path3030" />
        <path
           d="m 54.218,48.966 c 0,0.121 0.103,0.223 0.223,0.223 h 3.582 c 0.174,0 0.393,-0.158 0.453,-0.324 0.023,-0.215 -0.246,-0.708 -1.447,-1.109 -1.274,-0.425 -1.977,-0.488 -2.281,-0.488 -0.143,0 -0.207,0.014 -0.208,0.014 -0.15,0.048 -0.321,0.28 -0.321,0.462 v 1.222 z"
           id="path3032" />
        <path
           d="m 14.625,60.06 c 3.303,0 5.99,-2.687 5.99,-5.989 0,-3.302 -2.687,-5.99 -5.99,-5.99 -3.302,0 -5.989,2.687 -5.989,5.99 0,3.303 2.687,5.989 5.989,5.989 z m 0,-9.23 c 1.79,0 3.241,1.452 3.241,3.241 0,1.79 -1.451,3.241 -3.241,3.241 -1.79,0 -3.241,-1.451 -3.241,-3.241 0,-1.79 1.451,-3.241 3.241,-3.241 z"
           id="path3034" />
        <path
           d="m 80.468,54.07 c 0,-3.303 -2.687,-5.99 -5.989,-5.99 -3.302,0 -5.989,2.687 -5.989,5.99 0,3.303 2.687,5.989 5.989,5.989 3.302,0 5.989,-2.686 5.989,-5.989 z m -5.989,3.242 c -1.79,0 -3.241,-1.451 -3.241,-3.241 0,-1.789 1.451,-3.241 3.241,-3.241 1.79,0 3.241,1.452 3.241,3.241 0,1.789 -1.451,3.241 -3.241,3.241 z"
           id="path3036" />
        <path
           d="m 90.091,56.542 c -0.456,0 -1.157,-0.094 -1.598,-0.214 l -1.449,-0.396 c -0.353,-0.096 -0.958,-0.177 -1.323,-0.177 h -2.533 c -0.121,0 -0.223,0.102 -0.223,0.223 v 3.669 c 0,0.121 0.102,0.223 0.223,0.223 h 11.271 c 0.12,0 0.223,-0.102 0.223,-0.223 v -2.883 c 0,-0.121 -0.103,-0.223 -0.223,-0.223 h -4.368 z"
           id="path3038" />
      </g>
    </g>
  </g>
</svg>
